<?xml version="1.0" encoding="UTF-8"?>
<svg version="1.1" xmlns="http://www.w3.org/2000/svg" width="1408" height="768">
<path d="M0 0 C464.64 0 929.28 0 1408 0 C1408 253.44 1408 506.88 1408 768 C943.36 768 478.72 768 0 768 C0 514.56 0 261.12 0 0 Z " fill="#EDE4D5" transform="translate(0,0)"/>
<path d="M0 0 C5.71652615 0.15822068 11.24878434 1.36408162 16.83203125 2.5234375 C17.94827881 2.75232666 19.06452637 2.98121582 20.21459961 3.21704102 C27.87411932 4.82253719 35.26719211 6.64074 42.64453125 9.2734375 C43.80597656 9.65628906 44.96742188 10.03914062 46.1640625 10.43359375 C63.12950168 16.21622315 79.93927932 24.66473969 93.64453125 36.2734375 C94.81291386 37.2198476 95.98224091 38.16509255 97.15234375 39.109375 C119.8886181 57.71782495 135.76940491 84.99071096 139.64453125 114.2734375 C141.86127376 145.39846189 134.97374355 176.51595416 114.140625 200.5625 C113.31691406 201.45710937 112.49320313 202.35171875 111.64453125 203.2734375 C111.17031738 203.7900293 110.69610352 204.30662109 110.20751953 204.83886719 C93.0292978 223.34017983 71.87887279 235.37763304 47.64453125 242.2734375 C45.99324219 242.74716797 45.99324219 242.74716797 44.30859375 243.23046875 C30.81599579 246.82495351 17.58904853 247.68141497 3.70703125 247.6484375 C2.84757904 247.64789368 1.98812683 247.64734985 1.10263062 247.64678955 C-38.05418163 247.53291261 -38.05418163 247.53291261 -52.26171875 235.68359375 C-59.06699586 228.59476343 -60.99608495 219.8905708 -60.89624023 210.31445312 C-60.29060817 197.19190871 -53.00008309 187.55408709 -43.85546875 178.7734375 C-29.18629062 166.12759428 -11.66813932 160.28638807 6.46875 154.38671875 C7.64189003 154.0030439 7.64189003 154.0030439 8.83872986 153.61161804 C12.74996933 152.33301123 16.66461149 151.06935035 20.59057617 149.83666992 C36.24865954 144.83187274 54.60477179 137.70977566 62.64453125 122.2734375 C65.98224328 114.62147762 67.16280441 107.5136167 64.08203125 99.5859375 C61.28789188 93.93841905 57.32798872 90.50335551 51.64453125 87.8984375 C45.38325881 86.59400574 41.1292361 86.88925791 35.64453125 90.2734375 C24.13034019 97.86790394 18.82446573 114.12809162 16.02929688 127.13671875 C15.73829102 128.62751953 15.73829102 128.62751953 15.44140625 130.1484375 C15.24305176 131.14375488 15.04469727 132.13907227 14.84033203 133.16455078 C14.46621298 135.12027491 14.12476274 137.08259522 13.81982422 139.05029297 C12.58157746 145.62707446 12.58157746 145.62707446 9.80371094 147.54321289 C7.74452891 148.33388418 5.80953873 148.86563571 3.64453125 149.2734375 C2.15953125 149.61375 2.15953125 149.61375 0.64453125 149.9609375 C-0.01546875 150.0640625 -0.67546875 150.1671875 -1.35546875 150.2734375 C0.36702826 134.41905641 4.37052308 118.92356997 10.64453125 104.2734375 C11.0828125 103.20867187 11.52109375 102.14390625 11.97265625 101.046875 C16.73572841 90.45314554 24.54519128 80.2319536 35.69140625 75.98046875 C45.05530677 73.73858251 54.27413535 74.40896658 62.64453125 79.2734375 C70.29921989 84.0279891 75.16771884 91.69424302 77.64453125 100.2734375 C79.51868891 110.67112824 77.90512836 121.08574347 72.64453125 130.2734375 C69.92821572 133.94511115 66.94224321 137.12104844 63.64453125 140.2734375 C63.02835938 140.89734375 62.4121875 141.52125 61.77734375 142.1640625 C51.02404151 152.40969811 37.17564397 157.25595722 23.4765625 162.1953125 C22.03591431 162.72475464 22.03591431 162.72475464 20.56616211 163.26489258 C18.58518041 163.94872607 16.57750089 164.55883842 14.55297852 165.1003418 C9.20950976 166.47862066 9.20950976 166.47862066 5.44311523 170.18505859 C4.6948448 172.65725669 4.29378702 175.02527857 3.95703125 177.5859375 C3.60714835 179.47989051 3.24602999 181.37179473 2.875 183.26171875 C2.68728027 184.2460791 2.49956055 185.23043945 2.30615234 186.24462891 C-1.37097597 203.07800674 -8.35337327 219.93390049 -19.35546875 233.2734375 C-15.51843546 237.11047079 -2.66187029 235.50942939 2.51953125 235.5234375 C13.50457635 235.51940895 23.91648474 234.61655441 34.64453125 232.2734375 C35.43553223 232.10183105 36.2265332 231.93022461 37.04150391 231.75341797 C48.4977974 229.18281592 59.14690462 225.53321439 69.64453125 220.2734375 C70.25135742 219.97066895 70.85818359 219.66790039 71.48339844 219.35595703 C80.98079638 214.51500055 88.79567135 208.41665992 96.64453125 201.2734375 C97.29808594 200.71398437 97.95164062 200.15453125 98.625 199.578125 C114.00857658 185.61963033 125.16918446 161.91325998 126.64453125 141.2734375 C128.17233901 108.37033252 121.63785752 83.38185947 99.64453125 58.2734375 C98.99226562 57.52449219 98.34 56.77554688 97.66796875 56.00390625 C70.61557646 27.01920022 29.53728738 15.89977609 -8.35546875 11.2734375 C-4.76735665 0.38849239 -4.76735665 0.38849239 0 0 Z " fill="#262522" transform="translate(698.35546875,173.7265625)"/>
<path d="M0 0 C12.2203125 -0.0928125 12.2203125 -0.0928125 24.6875 -0.1875 C28.50380981 -0.22846802 28.50380981 -0.22846802 32.3972168 -0.27026367 C51.49086032 -0.39046029 67.26135344 0.88242932 81.73828125 14.609375 C90.31084781 23.67053344 93.53760018 33.0889194 93.375 45.4375 C93.38660156 46.31470703 93.39820313 47.19191406 93.41015625 48.09570312 C93.35662136 60.2035099 89.15444774 70.80190371 80.9375 79.6875 C59.92197709 99.82297589 25.55115061 94 0 94 C0 62.98 0 31.96 0 0 Z " fill="#262624" transform="translate(472,477)"/>
<path d="M0 0 C3.58748823 2.13722703 5.53937542 4.12001488 7 8 C7.19235855 10.69019085 7.27938146 13.25154455 7.25 15.9375 C7.25773438 16.64068359 7.26546875 17.34386719 7.2734375 18.06835938 C7.25812118 22.15398718 6.81163257 25.32641173 5 29 C2.03 28.67 -0.94 28.34 -4 28 C-5 25 -5 25 -4 22 C-3.93259135 20.43881572 -3.91485544 18.8749748 -3.9375 17.3125 C-3.94652344 16.50425781 -3.95554687 15.69601563 -3.96484375 14.86328125 C-3.97644531 14.24839844 -3.98804688 13.63351563 -4 13 C-8.19315768 13.09983709 -9.77451596 13.78922144 -12.875 16.6875 C-23.96331451 30.8607524 -34.28902291 50.81045443 -33 69 C-29.73039642 68.69294158 -28.29187775 68.28372474 -25.90234375 65.9609375 C-25.25394531 65.10757813 -24.60554687 64.25421875 -23.9375 63.375 C-23.25558594 62.4778125 -22.57367187 61.580625 -21.87109375 60.65625 C-19.66648246 57.52653043 -17.76984278 54.39219865 -16 51 C-12.37 51.33 -8.74 51.66 -5 52 C-5.80943771 56.04718857 -6.26934037 57.86816217 -8.23046875 61.203125 C-8.69630371 62.00516357 -9.16213867 62.80720215 -9.64208984 63.63354492 C-10.40706787 64.92869019 -10.40706787 64.92869019 -11.1875 66.25 C-12.28878251 68.14654228 -13.38899939 70.04370365 -14.48828125 71.94140625 C-15.06529785 72.93414551 -15.64231445 73.92688477 -16.23681641 74.94970703 C-19.15896174 80.00499418 -22.02108469 85.09345775 -24.875 90.1875 C-25.45846191 91.2285791 -26.04192383 92.2696582 -26.64306641 93.34228516 C-31.46650108 101.9811346 -36.15417675 110.68970016 -40.82202148 119.41333008 C-44.60052606 126.45588008 -48.47732567 133.43318279 -52.4375 140.375 C-57.27897052 148.86757336 -61.96228647 157.4373913 -66.5625 166.0625 C-67.03949341 166.956772 -67.03949341 166.956772 -67.52612305 167.86911011 C-68.47843798 169.6548822 -69.43064264 171.44071305 -70.3828125 173.2265625 C-78.42851732 188.31490426 -86.69887575 203.28043407 -94.97134399 218.24520874 C-99.56553982 226.55731844 -104.11755097 234.89041569 -108.625 243.25 C-117.10567026 258.95869347 -125.78095036 274.56431052 -134.75 290 C-135.15629639 290.70632568 -135.56259277 291.41265137 -135.98120117 292.14038086 C-138.76436798 296.88218399 -138.76436798 296.88218399 -141 298 C-140.43567582 292.03707452 -138.67052073 287.08044557 -136.40625 281.55859375 C-136.03223557 280.62853516 -135.65822113 279.69847656 -135.27287292 278.74023438 C-134.02257963 275.63630794 -132.76125867 272.53698517 -131.5 269.4375 C-130.60319547 267.21717178 -129.70713579 264.99654259 -128.81176758 262.77563477 C-126.88859557 258.00888716 -124.96087162 253.24401546 -123.02978516 248.48046875 C-119.98142153 240.96018947 -116.9484626 233.43374467 -113.91796875 225.90625 C-112.88591194 223.34314475 -111.85375513 220.78007978 -110.8215332 218.21704102 C-110.56431079 217.57834611 -110.30708838 216.9396512 -110.04207134 216.28160191 C-107.13327417 209.05995381 -104.21908459 201.84048331 -101.3046875 194.62109375 C-97.22315904 184.51048306 -93.14493157 174.398554 -89.0703125 164.28515625 C-77.73341297 136.15159307 -66.33925547 108.04210998 -54.8828125 79.95703125 C-54.47626938 78.95946808 -54.06972626 77.96190491 -53.65086365 76.93411255 C-51.56946932 71.8303606 -49.47768218 66.73118939 -47.37011719 61.63818359 C-46.94938934 60.61859055 -46.5286615 59.5989975 -46.09518433 58.54850769 C-45.29451422 56.60923212 -44.49103817 54.67111195 -43.68435669 52.73432922 C-43.33074066 51.87671494 -42.97712463 51.01910065 -42.61279297 50.13549805 C-42.30018524 49.38221725 -41.98757751 48.62893646 -41.66549683 47.85282898 C-40.88732161 46.01440896 -40.88732161 46.01440896 -41 44 C-64.16438635 45.42746469 -84.50985172 48.40443315 -104 62 C-104.59683594 62.39832031 -105.19367187 62.79664063 -105.80859375 63.20703125 C-111.22734135 67.1901626 -114.90022202 73.70066607 -117 80 C-118.01958961 90.41530147 -117.13381305 98.18862046 -111 107 C-106.65191537 112.27744623 -100.67291634 114.85655599 -94.57421875 117.703125 C-92 119 -92 119 -90 121 C-89.67045568 124.09771665 -89.54665399 126.17331023 -91.0625 128.9375 C-93.49480388 130.27134406 -95.23451249 130.16698908 -97.921875 129.625 C-109.36527871 126.18337482 -118.57965877 118.28689317 -124.8203125 108.203125 C-130.44940797 97.69050963 -131.62338639 86.96788677 -128.5 75.4375 C-122.99345111 59.2849566 -109.91086286 49.36766104 -95.18994141 42.02539062 C-81.17615744 35.46375265 -65.07660786 31.62739525 -49.5703125 32.09375 C-42.18585938 32.40085419 -42.18585938 32.40085419 -35 31 C-30.92717469 26.82435442 -29.20273003 22.33562843 -27 17 C-20.8015863 7.18822531 -12.22341816 -1.54378811 0 0 Z " fill="#262623" transform="translate(711,141)"/>
<path d="M0 0 C8.04375 -0.061875 16.0875 -0.12375 24.375 -0.1875 C26.89431152 -0.21481201 29.41362305 -0.24212402 32.00927734 -0.27026367 C34.03482587 -0.27903604 36.06037974 -0.2866782 38.0859375 -0.29296875 C39.11436768 -0.30831665 40.14279785 -0.32366455 41.20239258 -0.33947754 C52.04940862 -0.34335609 62.84409615 2.3222246 71.01171875 9.85546875 C77.88183166 17.30169175 80.42338867 25.17328163 80.2734375 35.25 C79.40335585 44.00053546 75.56415577 51.21210331 69 57 C66.71191628 58.57138824 64.50271439 59.77418071 62 61 C62.62815417 64.75740432 64.32730039 67.17440174 66.52734375 70.24609375 C67.23697266 71.24833984 67.94660156 72.25058594 68.67773438 73.28320312 C69.42345703 74.32412109 70.16917969 75.36503906 70.9375 76.4375 C72.40960356 78.49537544 73.87723068 80.55646225 75.33984375 82.62109375 C75.99331787 83.5330249 76.64679199 84.44495605 77.32006836 85.38452148 C78.91727015 87.87119825 80.01034131 90.22337925 81 93 C64.34068251 94.66257302 64.34068251 94.66257302 59.34375 91.11328125 C56.83308471 87.55473235 54.86543003 83.87848704 53.04394531 79.92480469 C49.26696452 71.96805076 49.26696452 71.96805076 43 66 C34.42256889 63.71948705 25.81031227 64.64222082 17 65 C17 74.24 17 83.48 17 93 C11.39 93 5.78 93 0 93 C0 62.31 0 31.62 0 0 Z " fill="#262624" transform="translate(707,477)"/>
<path d="M0 0 C6.27 0 12.54 0 19 0 C24.82353362 11.55442011 30.46566552 23.17976237 36 34.875 C36.82398481 36.61355913 37.648042 38.35208395 38.47216797 40.09057617 C40.5708479 44.51956879 42.66683586 48.94982886 44.76159668 53.38067627 C45.98026567 55.95826029 47.19956393 58.5355459 48.41894531 61.11279297 C50.30459295 65.09917038 52.18797574 69.08660961 54.06933594 73.07501221 C54.76968934 74.55941643 55.47053093 76.04359043 56.171875 77.52752686 C57.13973412 79.5761426 58.10536124 81.62579455 59.0703125 83.67578125 C59.61445801 84.82989502 60.15860352 85.98400879 60.71923828 87.1730957 C62 90 62 90 63 93 C56.4 93 49.8 93 43 93 C40.03 86.4 37.06 79.8 34 73 C9.745 72.505 9.745 72.505 -15 72 C-15.66 73.98 -16.32 75.96 -17 78 C-17.54946222 79.30038364 -18.12223157 80.59137776 -18.7265625 81.8671875 C-19.00580566 82.46128418 -19.28504883 83.05538086 -19.57275391 83.66748047 C-20.09361572 84.76020264 -20.09361572 84.76020264 -20.625 85.875 C-21.73875 88.22625 -22.8525 90.5775 -24 93 C-29.94 93 -35.88 93 -42 93 C-41.11082472 88.55412359 -39.79792599 85.07562002 -37.859375 81.05859375 C-37.38183777 80.05150108 -37.38183777 80.05150108 -36.89465332 79.02406311 C-36.20893594 77.57950021 -35.52070064 76.13613037 -34.8302002 74.69384766 C-33.36400498 71.6312245 -31.90997258 68.56287813 -30.45501709 65.49490356 C-29.71205683 63.92873746 -28.96844135 62.36288201 -28.22418213 60.79733276 C-24.8588566 53.71682663 -21.54492929 46.61353241 -18.25 39.5 C-17.7331665 38.38520264 -17.21633301 37.27040527 -16.68383789 36.12182617 C-11.10843705 24.08774933 -5.5522084 12.04479084 0 0 Z " fill="#272624" transform="translate(622,477)"/>
<path d="M0 0 C25.74 0 51.48 0 78 0 C78 13 78 13 74.0625 18.125 C72.37991381 19.75508741 70.69232158 21.38002194 69 23 C67.51419717 24.74784918 66.05586108 26.51939561 64.625 28.3125 C59.96807121 34.06089648 55.19717624 39.70539659 50.40722656 45.34277344 C47.64762701 48.59262801 44.89591506 51.84916342 42.14306641 55.10473633 C39.75501372 57.92818693 37.36408549 60.74913026 34.96875 63.56640625 C34.22334961 64.44425781 34.22334961 64.44425781 33.46289062 65.33984375 C32.51460218 66.45651986 31.56543719 67.57245241 30.61523438 68.6875 C28.31080177 71.40306826 26.13980434 74.14692755 24 77 C42.81 77.33 61.62 77.66 81 78 C81 83.28 81 88.56 81 94 C53.61 94 26.22 94 -2 94 C-2 81 -2 81 -0.3125 77.89453125 C0.8321875 76.86392578 0.8321875 76.86392578 2 75.8125 C2.83015625 75.008125 3.6603125 74.20375 4.515625 73.375 C5.74539063 72.199375 5.74539063 72.199375 7 71 C8.2789472 69.46110419 9.52947913 67.89813396 10.75 66.3125 C14.18821837 61.9478156 17.78478068 57.74706699 21.4375 53.5625 C25.9477825 48.3941061 30.3550665 43.16408915 34.671875 37.83203125 C37.99805829 33.78591903 41.41560898 29.82020343 44.84008789 25.85717773 C45.3221167 25.29844971 45.80414551 24.73972168 46.30078125 24.1640625 C46.72528564 23.67373535 47.14979004 23.1834082 47.5871582 22.67822266 C49.43259604 20.48614736 51.20996417 18.23754478 53 16 C35.51 15.67 18.02 15.34 0 15 C0 10.05 0 5.1 0 0 Z " fill="#292927" transform="translate(811,477)"/>
<path d="M0 0 C5.053125 -0.0825 10.10625 -0.165 15.3125 -0.25 C17.66822144 -0.30462402 17.66822144 -0.30462402 20.0715332 -0.36035156 C31.37403173 -0.44912776 40.81732741 1.00203268 49.27734375 9.0625 C57.10253836 17.86362591 57.64330992 26.49599695 57.17041016 37.84326172 C56.55457926 45.63731641 52.85059687 51.10143374 47.22265625 56.30859375 C40.29639503 61.57936898 33.1495964 63.13154602 24.609375 63.09765625 C23.31999023 63.09515869 22.03060547 63.09266113 20.70214844 63.09008789 C18.25083496 63.07643188 18.25083496 63.07643188 15.75 63.0625 C7.95375 63.0315625 7.95375 63.0315625 0 63 C0 42.21 0 21.42 0 0 Z " fill="#ECE4D4" transform="translate(490,492)"/>
<path d="M0 0 C5.61 0 11.22 0 17 0 C17 30.69 17 61.38 17 93 C11.39 93 5.78 93 0 93 C0 62.31 0 31.62 0 0 Z " fill="#242321" transform="translate(918,477)"/>
<path d="M0 0 C4.95 -0.103125 9.9 -0.20625 15 -0.3125 C16.54558594 -0.35802002 18.09117187 -0.40354004 19.68359375 -0.45043945 C27.24500616 -0.52666337 33.19130502 -0.39775663 39 5 C39.81017578 5.73222778 39.81017578 5.73222778 40.63671875 6.47924805 C44.11695637 10.36148303 43.32776128 15.93898481 43.2734375 20.828125 C42.91436864 24.9933238 41.95792341 27.04207659 39 30 C33.54205996 33.82055803 28.9703208 35.12650795 22.36328125 35.09765625 C20.60818237 35.09390991 20.60818237 35.09390991 18.81762695 35.09008789 C16.58758911 35.07643188 16.58758911 35.07643188 14.3125 35.0625 C9.589375 35.041875 4.86625 35.02125 0 35 C0 23.45 0 11.9 0 0 Z " fill="#EDE5D5" transform="translate(725,492)"/>
<path d="M0 0 C-1.13627377 8.61160703 -3.2409044 16.42586524 -6.25 24.5625 C-6.61996094 25.60857422 -6.98992188 26.65464844 -7.37109375 27.73242188 C-11.10824261 38.00639255 -16.07213199 51.30831248 -26 57.18359375 C-29.24230998 58.50711482 -31.53685694 58.4776749 -35 58 C-38.96462376 55.29972095 -41.93077801 51.70457675 -43 47 C-44.08530272 37.52055906 -41.42671586 30.02665567 -35.875 22.375 C-27.65532763 12.52869773 -17.37325079 7.34768746 -6 2 C-5.22398437 1.59523438 -4.44796875 1.19046875 -3.6484375 0.7734375 C-2 0 -2 0 0 0 Z " fill="#EBE4D4" transform="translate(692,345)"/>
<path d="M0 0 C0.66 0 1.32 0 2 0 C2.51046875 1.17755859 2.51046875 1.17755859 3.03125 2.37890625 C8.05320028 13.26425062 13.78827324 18.82155554 25 23 C25 23.66 25 24.32 25 25 C24.21496094 25.3403125 23.42992187 25.680625 22.62109375 26.03125 C11.73574938 31.05320028 6.17844446 36.78827324 2 48 C1.34 48 0.68 48 0 48 C-0.3403125 47.21496094 -0.680625 46.42992187 -1.03125 45.62109375 C-6.05320028 34.73574938 -11.78827324 29.17844446 -23 25 C-23 24.34 -23 23.68 -23 23 C-22.21496094 22.6596875 -21.42992187 22.319375 -20.62109375 21.96875 C-9.73574938 16.94679972 -4.17844446 11.21172676 0 0 Z " fill="#F5F1E9" transform="translate(1351,688)"/>
<path d="M0 0 C2.92445585 3.50218828 4.71731349 7.41142994 6.57421875 11.5390625 C6.90291458 12.26112885 7.23161041 12.98319519 7.57026672 13.72714233 C8.26088467 15.24735887 8.94908644 16.7686751 9.63500977 18.29101562 C10.68827867 20.62672676 11.75078517 22.95807159 12.81445312 25.2890625 C13.48492759 26.76797877 14.15486823 28.2471372 14.82421875 29.7265625 C15.14291428 30.42552643 15.4616098 31.12449036 15.78996277 31.84463501 C18 36.76938384 18 36.76938384 18 39 C6.45 39 -5.1 39 -17 39 C-11.375 24.375 -11.375 24.375 -8.88671875 19.04296875 C-8.36142578 17.91181641 -7.83613281 16.78066406 -7.29492188 15.61523438 C-6.49924805 13.91850586 -6.49924805 13.91850586 -5.6875 12.1875 C-5.13771484 11.00607422 -4.58792969 9.82464844 -4.02148438 8.60742188 C-2.68480767 5.73647278 -1.34428155 2.86739397 0 0 Z " fill="#EBE4D5" transform="translate(631,495)"/>
<path d="M0 0 C0.99 0 1.98 0 3 0 C3.495 3.96 3.495 3.96 4 8 C4.66 7.67 5.32 7.34 6 7 C9.4709951 6.62271792 11.30016217 6.49706994 14.1796875 8.56640625 C16.67335555 11.90021568 16.40231039 14.13761941 16.25 18.25 C16.21390625 19.51328125 16.1778125 20.7765625 16.140625 22.078125 C16.09421875 23.04234375 16.0478125 24.0065625 16 25 C15.34 25 14.68 25 14 25 C13.93941406 24.07316406 13.87882813 23.14632812 13.81640625 22.19140625 C13.73261719 20.99386719 13.64882813 19.79632812 13.5625 18.5625 C13.48128906 17.36753906 13.40007813 16.17257812 13.31640625 14.94140625 C13.32343886 12.11429756 13.32343886 12.11429756 12 11 C8.5 10.83333333 8.5 10.83333333 5 11 C3.12175109 12.87824891 3.60897603 16.03935276 3.4375 18.5625 C3.35371094 19.76003906 3.26992188 20.95757813 3.18359375 22.19140625 C3.09271484 23.58166016 3.09271484 23.58166016 3 25 C1.68 25 0.36 25 -1 25 C-1 24.34 -1 23.68 -1 23 C-4.60992379 23.65585189 -4.60992379 23.65585189 -8 25 C-13.70991556 25.54903034 -16.49807763 24.51369551 -21 21 C-21.33 22.32 -21.66 23.64 -22 25 C-25.375 25.125 -25.375 25.125 -29 25 C-31 23 -31 23 -31.1953125 19.7421875 C-31.17210937 18.46601562 -31.14890625 17.18984375 -31.125 15.875 C-31.10695313 14.59367188 -31.08890625 13.31234375 -31.0703125 11.9921875 C-31.04710937 11.00476563 -31.02390625 10.01734375 -31 9 C-31.99 9 -32.98 9 -34 9 C-34 8.34 -34 7.68 -34 7 C-33.01 7 -32.02 7 -31 7 C-31 5.68 -31 4.36 -31 3 C-30.34 3 -29.68 3 -29 3 C-29 4.32 -29 5.64 -29 7 C-28.071875 6.9175 -27.14375 6.835 -26.1875 6.75 C-23 7 -23 7 -21.125 9 C-20.568125 9.99 -20.568125 9.99 -20 11 C-19.4225 10.34 -18.845 9.68 -18.25 9 C-13.35702888 5.98894085 -8.60561742 6.67814637 -3 7 C-2.67 6.01 -2.34 5.02 -2 4 C-1.34870203 2.65909241 -0.68486725 1.32407669 0 0 Z " fill="#E2DBCC" transform="translate(881,595)"/>
<path d="M0 0 C4.31611874 0.88084056 5.98061519 2.47144345 9.0625 5.625 C9.9375 7.9375 9.9375 7.9375 10.0625 9.625 C10.64 8.696875 11.2175 7.76875 11.8125 6.8125 C15.05697514 2.21616022 15.05697514 2.21616022 18.0625 0.625 C22.03042579 0.2116744 24.65521925 0.52821185 28.0625 2.625 C28.0625 3.615 28.0625 4.605 28.0625 5.625 C27.546875 5.46 27.03125 5.295 26.5 5.125 C23.32886124 4.47451 20.29031666 4.5629266 17.0625 4.625 C15.67699803 7.39600394 15.8747533 9.5584706 16.0625 12.625 C17.0525 14.11 17.0525 14.11 18.0625 15.625 C21.59922026 15.93254089 24.67295199 15.66793785 28.0625 14.625 C27.0625 17.625 27.0625 17.625 25.0625 18.625 C20.4645945 18.95126833 15.85803775 18.94958885 11.25 19 C9.32317383 19.05607422 9.32317383 19.05607422 7.35742188 19.11328125 C6.11927734 19.12488281 4.88113281 19.13648438 3.60546875 19.1484375 C2.47133545 19.16825684 1.33720215 19.18807617 0.16870117 19.20849609 C-3.88840546 18.44637357 -5.35728805 16.76615328 -7.9375 13.625 C-8.83650815 10.83278644 -8.64637713 8.46050851 -7.9375 5.625 C-5.52360696 2.217151 -4.09852524 0.87202665 0 0 Z " fill="#E8E1D0" transform="translate(544.9375,601.375)"/>
<path d="M0 0 C2.4375 1 2.4375 1 4 2 C4 2.66 4 3.32 4 4 C4.99 4 5.98 4 7 4 C7 4.66 7 5.32 7 6 C7.99 6 8.98 6 10 6 C10 4.68 10 3.36 10 2 C10.99 2 11.98 2 13 2 C13 3.32 13 4.64 13 6 C14.65 6 16.3 6 18 6 C18 6.99 18 7.98 18 9 C16.35 9 14.7 9 13 9 C13.33 12.96 13.66 16.92 14 21 C15.65 21.33 17.3 21.66 19 22 C19 22.66 19 23.32 19 24 C15.625 24.1875 15.625 24.1875 12 24 C9.64880601 20.47320901 9.78556548 18.97120515 9.875 14.8125 C9.89304687 13.72582031 9.91109375 12.63914062 9.9296875 11.51953125 C9.95289063 10.68808594 9.97609375 9.85664062 10 9 C9.01 10.98 8.02 12.96 7 15 C6.67 15 6.34 15 6 15 C5.731875 16.11375 5.46375 17.2275 5.1875 18.375 C4 22 4 22 1 24 C-1.375 24.265625 -1.375 24.265625 -4 24.25 C-4.86625 24.25515625 -5.7325 24.2603125 -6.625 24.265625 C-9 24 -9 24 -12 22 C-12 21.34 -12 20.68 -12 20 C-11.319375 20.165 -10.63875 20.33 -9.9375 20.5 C-6.5835178 21.07089059 -3.39610195 21.06659023 0 21 C0.66 19.02 1.32 17.04 2 15 C1.32453125 14.90203125 0.6490625 14.8040625 -0.046875 14.703125 C-4.05959644 14.03047227 -7.24763121 13.48991456 -10.6875 11.25 C-12 9 -12 9 -12 5.9375 C-11 3 -11 3 -9.375 1.125 C-6.08741683 -0.43227624 -3.59699696 -0.32116044 0 0 Z " fill="#E5E0D0" transform="translate(817,596)"/>
<path d="M0 0 C0.66 0 1.32 0 2 0 C2 1.32 2 2.64 2 4 C3.3921875 3.87625 3.3921875 3.87625 4.8125 3.75 C8 4 8 4 9.875 6 C10.431875 6.99 10.431875 6.99 11 8 C11.680625 7.34 12.36125 6.68 13.0625 6 C16.69413218 3.52739937 18.6867465 3.52074961 23 4 C23.99 4.66 24.98 5.32 26 6 C26 6.99 26 7.98 26 9 C25.01 8.67 24.02 8.34 23 8 C19.45821402 7.74996036 19.45821402 7.74996036 16 8 C13.70172688 9.87938172 13.70172688 9.87938172 13.6875 12.9375 C13.73668315 15.93206539 13.73668315 15.93206539 15.2265625 17.7109375 C16.93986887 19.20976818 16.93986887 19.20976818 19.26171875 19.07421875 C20.46248047 18.88279297 20.46248047 18.88279297 21.6875 18.6875 C22.49574219 18.56761719 23.30398438 18.44773437 24.13671875 18.32421875 C24.75160156 18.21722656 25.36648438 18.11023438 26 18 C25 21 25 21 23 22 C17.29008444 22.54903034 14.50192237 21.51369551 10 18 C9.67 19.32 9.34 20.64 9 22 C5.625 22.125 5.625 22.125 2 22 C0 20 0 20 -0.1953125 16.7421875 C-0.17210937 15.46601562 -0.14890625 14.18984375 -0.125 12.875 C-0.10695313 11.59367188 -0.08890625 10.31234375 -0.0703125 8.9921875 C-0.04710937 8.00476563 -0.02390625 7.01734375 0 6 C-0.99 6 -1.98 6 -3 6 C-3 5.34 -3 4.68 -3 4 C-2.01 4 -1.02 4 0 4 C0 2.68 0 1.36 0 0 Z " fill="#E2DDD0" transform="translate(850,598)"/>
<path d="M0 0 C1.98 0 3.96 0 6 0 C6 0.66 6 1.32 6 2 C4.68 2 3.36 2 2 2 C2 31.7 2 61.4 2 92 C16.85 92 31.7 92 47 92 C46.67 92.66 46.34 93.32 46 94 C30.82 94 15.64 94 0 94 C0 62.98 0 31.96 0 0 Z " fill="#484840" transform="translate(472,477)"/>
<path d="M0 0 C2.75329021 1.79562405 4.52627461 3.05254922 6 6 C6.25491388 9.9086795 6.23289019 12.70942498 4 16 C0.30670342 18.46219772 -2.7149344 18.79198683 -7 18 C-9.9838283 16.01078114 -11.60276841 14.61497432 -12.4765625 11.0625 C-12.76173735 7.10007055 -12.23047397 5.33523486 -9.9375 2 C-6.23727467 -0.51930235 -4.3968344 -0.7066341 0 0 Z " fill="#E6E0D0" transform="translate(623,602)"/>
<path d="M0 0 C13.34653316 -0.49431604 13.34653316 -0.49431604 16.421875 1.83203125 C18 4 18 4 18.5 6.9375 C17.83413669 11.01591275 17.31255951 12.44029493 14 15 C9.96735149 15.4236426 6.03930483 15.28579987 2 15 C2 17.64 2 20.28 2 23 C1.34 23 0.68 23 0 23 C0 15.41 0 7.82 0 0 Z " fill="#E7E2D1" transform="translate(503,597)"/>
<path d="M0 0 C0.99 0 1.98 0 3 0 C3 1.32 3 2.64 3 4 C2.34 4.66 1.68 5.32 1 6 C1.66 6.33 2.32 6.66 3 7 C3 12.94 3 18.88 3 25 C2.01 25 1.02 25 0 25 C-0.33 21.04 -0.66 17.08 -1 13 C-1.99 13 -2.98 13 -4 13 C-3.96519531 13.61488281 -3.93039062 14.22976563 -3.89453125 14.86328125 C-3.86746094 15.67152344 -3.84039063 16.47976563 -3.8125 17.3125 C-3.77769531 18.11300781 -3.74289062 18.91351562 -3.70703125 19.73828125 C-4 22 -4 22 -5.2265625 23.76953125 C-7.47160501 25.32721493 -8.84727595 25.40183912 -11.5625 25.375 C-12.34753906 25.38273438 -13.13257813 25.39046875 -13.94140625 25.3984375 C-14.62074219 25.26695312 -15.30007813 25.13546875 -16 25 C-16.66 24.01 -17.32 23.02 -18 22 C-14.7 22 -11.4 22 -8 22 C-7.67 21.01 -7.34 20.02 -7 19 C-10.3 18.01 -13.6 17.02 -17 16 C-17.6875 13.1875 -17.6875 13.1875 -18 10 C-16.83203125 8.30859375 -16.83203125 8.30859375 -15 7 C-12.625 6.7421875 -12.625 6.7421875 -10 6.875 C-6.84568719 7.01581754 -5.03988899 7.01329633 -2 6 C-0.77479736 2.99152582 -0.77479736 2.99152582 0 0 Z " fill="#E3DDCE" transform="translate(603,595)"/>
<path d="M0 0 C4.35903646 0.88959928 6.0180284 2.36306614 9.0625 5.625 C9.0625 7.275 9.0625 8.925 9.0625 10.625 C4.4425 10.625 -0.1775 10.625 -4.9375 10.625 C-3.9475 12.275 -2.9575 13.925 -1.9375 15.625 C1.61680783 16.07874142 4.65077648 15.67476108 8.0625 14.625 C7.0625 17.625 7.0625 17.625 5.0625 18.625 C-1.90892857 19.31071429 -1.90892857 19.31071429 -5.9375 16.625 C-8.15751397 13.29497904 -8.68938458 11.48597377 -8.421875 7.5625 C-7.28464708 3.01358834 -4.4078842 0.9378477 0 0 Z " fill="#38342B" transform="translate(544.9375,601.375)"/>
<path d="M0 0 C2.875 1.625 2.875 1.625 5 4 C5 5.98 5 7.96 5 10 C0.38 10 -4.24 10 -9 10 C-8.34 11.32 -7.68 12.64 -7 14 C-3.08355188 14.94284862 0.16423878 15.38087404 4 14 C3.34 15.32 2.68 16.64 2 18 C-2.34041334 18.29426531 -5.02762756 18.4456707 -9 16.625 C-11.64961361 13.14738214 -11.71236654 10.64540321 -11.484375 6.3515625 C-11 4 -11 4 -8.875 1.375 C-5.49635524 -0.24087358 -3.69739168 -0.61623195 0 0 Z " fill="#2C2821" transform="translate(755,602)"/>
<path d="M0 0 C2.4375 1 2.4375 1 4 2 C4 2.66 4 3.32 4 4 C0.37 4 -3.26 4 -7 4 C-7.33 5.65 -7.66 7.3 -8 9 C-6.84371094 9.39832031 -6.84371094 9.39832031 -5.6640625 9.8046875 C-4.66117188 10.15789063 -3.65828125 10.51109375 -2.625 10.875 C-1.12839844 11.39707031 -1.12839844 11.39707031 0.3984375 11.9296875 C3 13 3 13 5 15 C5.375 17.9375 5.375 17.9375 5 21 C2.86322259 23.09277056 1.50170993 23.92628906 -1.47265625 24.36328125 C-2.75462891 24.33814453 -2.75462891 24.33814453 -4.0625 24.3125 C-5.34833984 24.30669922 -5.34833984 24.30669922 -6.66015625 24.30078125 C-9 24 -9 24 -12 22 C-12 21.34 -12 20.68 -12 20 C-11.319375 20.165 -10.63875 20.33 -9.9375 20.5 C-6.5835178 21.07089059 -3.39610195 21.06659023 0 21 C0.66 19.02 1.32 17.04 2 15 C1.32453125 14.90203125 0.6490625 14.8040625 -0.046875 14.703125 C-4.05959644 14.03047227 -7.24763121 13.48991456 -10.6875 11.25 C-12 9 -12 9 -12 5.9375 C-11 3 -11 3 -9.375 1.125 C-6.08741683 -0.43227624 -3.59699696 -0.32116044 0 0 Z " fill="#28271F" transform="translate(817,596)"/>
<path d="M0 0 C0.99 0 1.98 0 3 0 C3.33 2.64 3.66 5.28 4 8 C4.66 7.67 5.32 7.34 6 7 C9.4709951 6.62271792 11.30016217 6.49706994 14.1796875 8.56640625 C16.67335555 11.90021568 16.40231039 14.13761941 16.25 18.25 C16.21390625 19.51328125 16.1778125 20.7765625 16.140625 22.078125 C16.07101562 23.52445313 16.07101562 23.52445313 16 25 C15.34 25 14.68 25 14 25 C13.93941406 24.07316406 13.87882813 23.14632812 13.81640625 22.19140625 C13.73261719 20.99386719 13.64882813 19.79632812 13.5625 18.5625 C13.48128906 17.36753906 13.40007813 16.17257812 13.31640625 14.94140625 C13.32343886 12.11429756 13.32343886 12.11429756 12 11 C8.5 10.83333333 8.5 10.83333333 5 11 C3.12175109 12.87824891 3.60897603 16.03935276 3.4375 18.5625 C3.35371094 19.76003906 3.26992188 20.95757813 3.18359375 22.19140625 C3.12300781 23.11824219 3.06242188 24.04507813 3 25 C2.01 25 1.02 25 0 25 C0 16.75 0 8.5 0 0 Z " fill="#211E16" transform="translate(881,595)"/>
<path d="M0 0 C0.99 0 1.98 0 3 0 C3.33 0.66 3.66 1.32 4 2 C4.66 1.34 5.32 0.68 6 0 C9.78702122 -0.58909219 11.55358454 -0.26202646 14.875 1.6875 C18.1789229 6.83773276 17.39240655 12.04414061 17 18 C16.01 18 15.02 18 14 18 C13.93941406 17.07316406 13.87882813 16.14632812 13.81640625 15.19140625 C13.73261719 13.99386719 13.64882813 12.79632812 13.5625 11.5625 C13.48128906 10.36753906 13.40007813 9.17257812 13.31640625 7.94140625 C13.32343886 5.11429756 13.32343886 5.11429756 12 4 C9.32941149 3.85884839 6.67567762 3.95752893 4 4 C3.67 8.62 3.34 13.24 3 18 C2.01 18 1.02 18 0 18 C0 12.06 0 6.12 0 0 Z " fill="#434037" transform="translate(633,602)"/>
<path d="M0 0 C13.34653316 -0.49431604 13.34653316 -0.49431604 16.421875 1.83203125 C18 4 18 4 18.5 6.9375 C17.83413669 11.01591275 17.31255951 12.44029493 14 15 C9.96735149 15.4236426 6.03930483 15.28579987 2 15 C2 17.64 2 20.28 2 23 C1.34 23 0.68 23 0 23 C0 15.41 0 7.82 0 0 Z M2 2 C2 5.63 2 9.26 2 13 C3.588125 13.04125 5.17625 13.0825 6.8125 13.125 C7.70582031 13.14820313 8.59914063 13.17140625 9.51953125 13.1953125 C12.25402714 13.18285827 12.25402714 13.18285827 15 11 C15.5 7.5 15.5 7.5 15 4 C11.68629 1.79086 10.6553979 1.77518447 6.8125 1.875 C5.224375 1.91625 3.63625 1.9575 2 2 Z " fill="#2C281F" transform="translate(503,597)"/>
<path d="M0 0 C5.28 0 10.56 0 16 0 C16 0.66 16 1.32 16 2 C11.38 2 6.76 2 2 2 C2 4.64 2 7.28 2 10 C5.96 10 9.92 10 14 10 C14 10.66 14 11.32 14 12 C10.04 12 6.08 12 2 12 C2 14.97 2 17.94 2 21 C6.62 21 11.24 21 16 21 C16 21.66 16 22.32 16 23 C10.72 23 5.44 23 0 23 C0 15.41 0 7.82 0 0 Z " fill="#1D1A13" transform="translate(706,597)"/>
<path d="M0 0 C2.75329021 1.79562405 4.52627461 3.05254922 6 6 C6.25491388 9.9086795 6.23289019 12.70942498 4 16 C0.30670342 18.46219772 -2.7149344 18.79198683 -7 18 C-9.9838283 16.01078114 -11.60276841 14.61497432 -12.4765625 11.0625 C-12.76173735 7.10007055 -12.23047397 5.33523486 -9.9375 2 C-6.23727467 -0.51930235 -4.3968344 -0.7066341 0 0 Z M-8.9375 4.6875 C-10.21304072 7.46367686 -10.52826174 8.9813615 -10 12 C-8.56338689 14.52006844 -8.56338689 14.52006844 -6 16 C-0.94307101 15.85718492 -0.94307101 15.85718492 3 13 C3.44869173 8.3577566 3.44869173 8.3577566 1.9375 4.0625 C-1.79478255 2.01576441 -5.67763927 1.84826646 -8.9375 4.6875 Z " fill="#444137" transform="translate(623,602)"/>
<path d="M0 0 C0.99 0 1.98 0 3 0 C4.98 4.29 6.96 8.58 9 13 C12.465 6.565 12.465 6.565 16 0 C16.66 0 17.32 0 18 0 C16.30715036 5.77560466 14.11798644 11.06545358 11.4375 16.4375 C11.13255615 17.05254395 10.8276123 17.66758789 10.51342773 18.30126953 C9.20169553 20.8845386 8.06212012 22.93787988 6 25 C3.375 25.125 3.375 25.125 1 25 C0.67 24.01 0.34 23.02 0 22 C1.98 21.67 3.96 21.34 6 21 C7.2972513 17.094817 6.39313568 15.09532053 4.59960938 11.4140625 C4.25736328 10.74117187 3.91511719 10.06828125 3.5625 9.375 C0 2.20928571 0 2.20928571 0 0 Z " fill="#2B2821" transform="translate(776,602)"/>
<path d="M0 0 C0.66 0 1.32 0 2 0 C2.33 0.66 2.66 1.32 3 2 C3.99 1.34 4.98 0.68 6 0 C7.97265625 -0.08203125 7.97265625 -0.08203125 10.0625 0.1875 C10.75472656 0.26355469 11.44695313 0.33960938 12.16015625 0.41796875 C14 1 14 1 16 4 C16.1953125 7.35546875 16.1953125 7.35546875 16.125 11.1875 C16.10695313 12.45980469 16.08890625 13.73210938 16.0703125 15.04296875 C16.04710937 16.01878906 16.02390625 16.99460937 16 18 C15.01 18 14.02 18 13 18 C12.67 13.38 12.34 8.76 12 4 C9.69 4 7.38 4 5 4 C2.31907309 6.68092691 2.61329743 8.39167363 2.375 12.125 C2.30023437 13.22070312 2.22546875 14.31640625 2.1484375 15.4453125 C2.09945312 16.28835938 2.05046875 17.13140625 2 18 C1.34 18 0.68 18 0 18 C0 12.06 0 6.12 0 0 Z " fill="#16120B" transform="translate(674,602)"/>
<path d="M0 0 C0.99 0.33 1.98 0.66 3 1 C3 1.66 3 2.32 3 3 C-0.3 3 -3.6 3 -7 3 C-7 4.32 -7 5.64 -7 7 C-6.37351562 7.12117187 -5.74703125 7.24234375 -5.1015625 7.3671875 C-4.28429687 7.53476562 -3.46703125 7.70234375 -2.625 7.875 C-1.81289063 8.03742187 -1.00078125 8.19984375 -0.1640625 8.3671875 C2 9 2 9 4 11 C3.67028521 14.29714793 3.3773161 15.6226839 1 18 C-1.09375 18.30078125 -1.09375 18.30078125 -3.5 18.3125 C-4.2940625 18.32925781 -5.088125 18.34601562 -5.90625 18.36328125 C-6.5971875 18.24339844 -7.288125 18.12351562 -8 18 C-8.66 17.01 -9.32 16.02 -10 15 C-6.7 15 -3.4 15 0 15 C0.33 14.01 0.66 13.02 1 12 C-2.3 11.01 -5.6 10.02 -9 9 C-10.32 3.6 -10.32 3.6 -9 1.125 C-5.97393811 -0.57715982 -3.40549307 -0.2432495 0 0 Z " fill="#363129" transform="translate(595,602)"/>
<path d="M0 0 C0.66 0.33 1.32 0.66 2 1 C1.79375 1.78375 1.5875 2.5675 1.375 3.375 C1.25125 4.24125 1.1275 5.1075 1 6 C1.66 6.66 2.32 7.32 3 8 C2.625 10.125 2.625 10.125 2 12 C1.67 10.68 1.34 9.36 1 8 C0.34 8 -0.32 8 -1 8 C-1 8.66 -1 9.32 -1 10 C-4.96 10 -8.92 10 -13 10 C-13 7.69 -13 5.38 -13 3 C-8.71 3 -4.42 3 0 3 C0 2.01 0 1.02 0 0 Z " fill="#F2EEE1" transform="translate(722,596)"/>
<path d="M0 0 C2.375 1 2.375 1 4 2 C4 2.99 4 3.98 4 5 C3.484375 4.835 2.96875 4.67 2.4375 4.5 C-0.73363876 3.84951 -3.77218334 3.9379266 -7 4 C-8.38550197 6.77100394 -8.1877467 8.9334706 -8 12 C-7.01 13.485 -7.01 13.485 -6 15 C-2.46327974 15.30754089 0.61045199 15.04293785 4 14 C3 17 3 17 1 18 C-5.97142857 18.68571429 -5.97142857 18.68571429 -10 16 C-12.20809832 12.68785252 -12.81013892 10.85009577 -12.55078125 6.9375 C-10.86631923 1.01201658 -5.56557617 -0.8469355 0 0 Z " fill="#302C24" transform="translate(569,602)"/>
<path d="M0 0 C0.99 0 1.98 0 3 0 C3 1.32 3 2.64 3 4 C4.65 4 6.3 4 8 4 C8 4.99 8 5.98 8 7 C6.35 7 4.7 7 3 7 C3.33 10.96 3.66 14.92 4 19 C5.65 19.33 7.3 19.66 9 20 C9 20.66 9 21.32 9 22 C5.625 22.1875 5.625 22.1875 2 22 C-0.42130331 18.36804504 -0.21022785 16.61650652 -0.125 12.3125 C-0.09792969 10.54326172 -0.09792969 10.54326172 -0.0703125 8.73828125 C-0.03550781 7.38283203 -0.03550781 7.38283203 0 6 C-0.99 6 -1.98 6 -3 6 C-3 5.34 -3 4.68 -3 4 C-2.01 4 -1.02 4 0 4 C0 2.68 0 1.36 0 0 Z " fill="#403F37" transform="translate(827,598)"/>
<path d="M0 0 C0.99 0.66 1.98 1.32 3 2 C3 2.99 3 3.98 3 5 C2.01 4.67 1.02 4.34 0 4 C-3.54178598 3.74996036 -3.54178598 3.74996036 -7 4 C-9.29827312 5.87938172 -9.29827312 5.87938172 -9.3125 8.9375 C-9.26331685 11.93206539 -9.26331685 11.93206539 -7.7734375 13.7109375 C-6.06013113 15.20976818 -6.06013113 15.20976818 -3.73828125 15.07421875 C-2.93777344 14.94660156 -2.13726563 14.81898438 -1.3125 14.6875 C-0.10013672 14.50767578 -0.10013672 14.50767578 1.13671875 14.32421875 C1.75160156 14.21722656 2.36648438 14.11023438 3 14 C2 17 2 17 0 18 C-3.93297819 18.37103568 -6.36470037 18.31089131 -9.9375 16.5625 C-12.5486366 13.31836059 -12.72982459 11.27935673 -12.48046875 7.1953125 C-11.00477021 0.45268991 -6.17385208 -0.80031416 0 0 Z " fill="#252219" transform="translate(873,602)"/>
<path d="M0 0 C0.99 0 1.98 0 3 0 C3.84026396 1.76755526 4.67198722 3.53917263 5.5 5.3125 C5.9640625 6.29863281 6.428125 7.28476562 6.90625 8.30078125 C8 11 8 11 8 14 C8.66 14 9.32 14 10 14 C10.18175781 13.40832031 10.36351562 12.81664062 10.55078125 12.20703125 C13.25850509 3.69505836 13.25850509 3.69505836 16 0 C16.66 0 17.32 0 18 0 C16.06375702 6.20477864 13.74390859 12.10825719 11 18 C9.68 18 8.36 18 7 18 C5.82887054 15.37690901 4.66294036 12.75171858 3.5 10.125 C3.16613281 9.37863281 2.83226562 8.63226562 2.48828125 7.86328125 C2.17246094 7.14785156 1.85664062 6.43242188 1.53125 5.6953125 C1.23798828 5.03547363 0.94472656 4.37563477 0.64257812 3.69580078 C0 2 0 2 0 0 Z " fill="#2C2A22" transform="translate(724,602)"/>
<path d="M0 0 C2.47174856 2.14934657 3.70153419 3.68792919 4 7 C3.22729492 8.9987793 3.22729492 8.9987793 1.98046875 11.07421875 C1.53509766 11.82380859 1.08972656 12.57339844 0.63085938 13.34570312 C0.15455078 14.11849609 -0.32175781 14.89128906 -0.8125 15.6875 C-1.27720703 16.47189453 -1.74191406 17.25628906 -2.22070312 18.06445312 C-5.70863288 23.85431644 -5.70863288 23.85431644 -8 25 C-7.43375164 19.05837993 -5.6793942 14.07178852 -3.4375 8.5625 C-3.10814453 7.73556641 -2.77878906 6.90863281 -2.43945312 6.05664062 C-1.63314164 4.03501907 -0.81751877 2.01711551 0 0 Z " fill="#322E27" transform="translate(578,414)"/>
<path d="M0 0 C1.125 1.5625 1.125 1.5625 2 4 C1.125 7.75 1.125 7.75 0 11 C-0.66 10.67 -1.32 10.34 -2 10 C-1.67 9.34 -1.34 8.68 -1 8 C-1.515625 8.350625 -2.03125 8.70125 -2.5625 9.0625 C-5.94006667 10.3615641 -8.50468057 9.67217681 -12 9 C-12.66 7.35 -13.32 5.7 -14 4 C-9.38 4 -4.76 4 0 4 C0 2.68 0 1.36 0 0 Z " fill="#DFDCD1" transform="translate(760,608)"/>
<path d="M0 0 C0 0.66 0 1.32 0 2 C0.99 1.67 1.98 1.34 3 1 C3 1.66 3 2.32 3 3 C1.68 3 0.36 3 -1 3 C-1 3.99 -1 4.98 -1 6 C-6.95703125 7.7578125 -6.95703125 7.7578125 -9 8 C-9.99 7.34 -10.98 6.68 -12 6 C-12 5.34 -12 4.68 -12 4 C-11.34 4 -10.68 4 -10 4 C-10.33 3.01 -10.66 2.02 -11 1 C-6.87831311 -0.62950412 -4.29299643 -1.26264601 0 0 Z " fill="#E3DCCE" transform="translate(710,322)"/>
<path d="M0 0 C2.475 0.99 2.475 0.99 5 2 C4.34 2.66 3.68 3.32 3 4 C3 3.34 3 2.68 3 2 C2.01 2 1.02 2 0 2 C0 7.94 0 13.88 0 20 C0.99 20 1.98 20 3 20 C3 20.66 3 21.32 3 22 C1.68 22 0.36 22 -1 22 C-2.60725635 18.78548731 -2.05748185 15.56387464 -2 12 C-2.66 12 -3.32 12 -4 12 C-4.33 9.69 -4.66 7.38 -5 5 C-4.34 5.66 -3.68 6.32 -3 7 C-2.01 4.69 -1.02 2.38 0 0 Z M3 11 C3.33 11 3.66 11 4 11 C4 13.97 4 16.94 4 20 C3.67 20 3.34 20 3 20 C3 17.03 3 14.06 3 11 Z " fill="#EFEADE" transform="translate(765,600)"/>
<path d="M0 0 C0.66 0 1.32 0 2 0 C2 1.32 2 2.64 2 4 C3.98 4 5.96 4 8 4 C8 4.66 8 5.32 8 6 C6.02 6 4.04 6 2 6 C2.33 10.29 2.66 14.58 3 19 C4.65 19.33 6.3 19.66 8 20 C8 20.66 8 21.32 8 22 C5.125 22.125 5.125 22.125 2 22 C0 20 0 20 -0.1953125 16.7421875 C-0.17210937 15.46601562 -0.14890625 14.18984375 -0.125 12.875 C-0.10695313 11.59367188 -0.08890625 10.31234375 -0.0703125 8.9921875 C-0.04710937 8.00476563 -0.02390625 7.01734375 0 6 C-0.99 6 -1.98 6 -3 6 C-3 5.34 -3 4.68 -3 4 C-2.01 4 -1.02 4 0 4 C0 2.68 0 1.36 0 0 Z " fill="#2B281F" transform="translate(850,598)"/>
<path d="M0 0 C1.32 0.33 2.64 0.66 4 1 C6.68149993 0.61432869 6.68149993 0.61432869 9 0 C9 0.99 9 1.98 9 3 C7.35 3.66 5.7 4.32 4 5 C3.67 9.29 3.34 13.58 3 18 C2.01 18 1.02 18 0 18 C0 12.06 0 6.12 0 0 Z " fill="#37352E" transform="translate(765,602)"/>
<path d="M0 0 C3.73591702 -0.43440896 5.59914784 -0.23528279 8.875 1.6875 C12.1789229 6.83773276 11.39240655 12.04414061 11 18 C10.01 18 9.02 18 8 18 C7.95101562 17.08476563 7.90203125 16.16953125 7.8515625 15.2265625 C7.77679687 14.03804687 7.70203125 12.84953125 7.625 11.625 C7.55539062 10.44164062 7.48578125 9.25828125 7.4140625 8.0390625 C7.29782654 4.89437681 7.29782654 4.89437681 5 3 C2.42938689 2.35232207 2.42938689 2.35232207 0 2 C0 1.34 0 0.68 0 0 Z " fill="#3A372E" transform="translate(639,602)"/>
<path d="M0 0 C3.63 0 7.26 0 11 0 C11 0.33 11 0.66 11 1 C8.03 1 5.06 1 2 1 C2 5.29 2 9.58 2 14 C4.97 14 7.94 14 11 14 C11 14.33 11 14.66 11 15 C8.03 15 5.06 15 2 15 C2 17.64 2 20.28 2 23 C1.34 23 0.68 23 0 23 C0 15.41 0 7.82 0 0 Z " fill="#110E06" transform="translate(503,597)"/>
<path d="M0 0 C2.4375 1 2.4375 1 4 2 C4 2.66 4 3.32 4 4 C0.37 4 -3.26 4 -7 4 C-7.33 5.65 -7.66 7.3 -8 9 C-8.99 9.66 -9.98 10.32 -11 11 C-11.8125 8.3125 -11.8125 8.3125 -12 5 C-8.57301838 0.07371392 -5.85886815 -0.74567413 0 0 Z " fill="#3F3D35" transform="translate(817,596)"/>
<path d="M0 0 C0.33 0.66 0.66 1.32 1 2 C1.99 2 2.98 2 4 2 C4 6.29 4 10.58 4 15 C3.34 13.68 2.68 12.36 2 11 C1.34 12.65 0.68 14.3 0 16 C-0.33 16 -0.66 16 -1 16 C-1.02685095 13.52076199 -1.04676547 11.0418116 -1.0625 8.5625 C-1.07506836 7.50192383 -1.07506836 7.50192383 -1.08789062 6.41992188 C-1.09653588 4.61306441 -1.05220011 2.80612397 -1 1 C-0.67 0.67 -0.34 0.34 0 0 Z " fill="#F4EDDF" transform="translate(845,603)"/>
<path d="M0 0 C2 2 2 2 2 5 C-1.96 5 -5.92 5 -10 5 C-7.36847659 -1.57880853 -6.48639237 -1.48646492 0 0 Z " fill="#DEDACE" transform="translate(756,605)"/>
<path d="M0 0 C1.50156874 3.00313748 1.09281204 5.79067522 1.0625 9.125 C1.05347656 10.40632812 1.04445313 11.68765625 1.03515625 13.0078125 C1.02355469 13.99523437 1.01195312 14.98265625 1 16 C0.01 16 -0.98 16 -2 16 C-2.33 11.38 -2.66 6.76 -3 2 C-5.97 1.505 -5.97 1.505 -9 1 C-9 0.67 -9 0.34 -9 0 C-3.375 -1.125 -3.375 -1.125 0 0 Z " fill="#403D33" transform="translate(689,604)"/>
<path d="M0 0 C1.32 0.33 2.64 0.66 4 1 C6.68149993 0.61432869 6.68149993 0.61432869 9 0 C9 0.99 9 1.98 9 3 C7.02 3.66 5.04 4.32 3 5 C2.67 9.29 2.34 13.58 2 18 C1.34 18 0.68 18 0 18 C0 12.06 0 6.12 0 0 Z " fill="#1A1810" transform="translate(526,602)"/>
<path d="M0 0 C5.45454545 0.45454545 5.45454545 0.45454545 8 3 C8 3.99 8 4.98 8 6 C4.04 6 0.08 6 -4 6 C-2 2 -2 2 0 0 Z " fill="#E7E2D7" transform="translate(543,604)"/>
<path d="M0 0 C0.99 0 1.98 0 3 0 C3 5.94 3 11.88 3 18 C2.01 18 1.02 18 0 18 C0 12.06 0 6.12 0 0 Z " fill="#38362C" transform="translate(603,602)"/>
<path d="M0 0 C0.99 0 1.98 0 3 0 C3 5.94 3 11.88 3 18 C2.01 18 1.02 18 0 18 C0 12.06 0 6.12 0 0 Z " fill="#3F3C33" transform="translate(840,602)"/>
<path d="M0 0 C2.875 1.6875 2.875 1.6875 5 4 C5.3125 6.75 5.3125 6.75 5 9 C4.34 9 3.68 9 3 9 C2.79375 8.195625 2.5875 7.39125 2.375 6.5625 C1.21309493 3.71788203 1.21309493 3.71788203 -1.875 2.9375 C-5.05190629 2.69681063 -5.05190629 2.69681063 -7.25 4.6875 C-8.80752939 6.74566383 -9.98600279 8.6340065 -11 11 C-11.3125 7.75 -11.3125 7.75 -11 4 C-7.6828559 0.19504059 -4.97314546 -0.82885758 0 0 Z " fill="#24211A" transform="translate(755,602)"/>
<path d="M0 0 C0.33 0 0.66 0 1 0 C1.28875 1.11375 1.5775 2.2275 1.875 3.375 C2.69241329 7.00291092 2.69241329 7.00291092 5 9 C8.53318313 9.23042499 11.61401171 9.04184255 15 8 C14 11 14 11 12 12 C4.97544454 12.69093988 4.97544454 12.69093988 1 9.875 C-1.30622197 6.55980592 -1.53903657 4.95293486 -1 1 C-0.67 0.67 -0.34 0.34 0 0 Z " fill="#29241C" transform="translate(538,608)"/>
<path d="M0 0 C0.66 0 1.32 0 2 0 C2.103125 1.093125 2.20625 2.18625 2.3125 3.3125 C3.05405322 7.44701202 3.05405322 7.44701202 6 10 C8.28330101 10.36146457 8.28330101 10.36146457 10.6875 10.1875 C11.89986328 10.14689453 11.89986328 10.14689453 13.13671875 10.10546875 C13.75160156 10.07066406 14.36648438 10.03585937 15 10 C14.01 11.485 14.01 11.485 13 13 C8.14329662 13.63694471 6.10259427 13.73506285 2 11 C-0.68652977 6.97020535 -0.40344574 4.76065969 0 0 Z " fill="#221F15" transform="translate(611,607)"/>
<path d="M0 0 C0.36923077 6.4 0.36923077 6.4 -1.5 9.4375 C-1.995 9.953125 -2.49 10.46875 -3 11 C-3 10.34 -3 9.68 -3 9 C-4.65 9 -6.3 9 -8 9 C-7.34 6.36 -6.68 3.72 -6 1 C-1.125 0 -1.125 0 0 0 Z " fill="#D7D0C1" transform="translate(861,609)"/>
<path d="M0 0 C2.375 -0.125 2.375 -0.125 5 0 C5.66 0.66 6.32 1.32 7 2 C6.67028521 5.29714793 6.3773161 6.6226839 4 9 C1.90625 9.30078125 1.90625 9.30078125 -0.5 9.3125 C-1.2940625 9.32925781 -2.088125 9.34601562 -2.90625 9.36328125 C-3.5971875 9.24339844 -4.288125 9.12351562 -5 9 C-5.66 8.01 -6.32 7.02 -7 6 C-3.7 6 -0.4 6 3 6 C3.33 5.01 3.66 4.02 4 3 C2.68 2.01 1.36 1.02 0 0 Z " fill="#27241C" transform="translate(592,611)"/>
<path d="M0 0 C0.33 0.66 0.66 1.32 1 2 C3.34907875 2.68931344 3.34907875 2.68931344 6.0625 3.125 C6.98160156 3.29257812 7.90070312 3.46015625 8.84765625 3.6328125 C9.91306641 3.81457031 9.91306641 3.81457031 11 4 C11 5.32 11 6.64 11 8 C10 9 10 9 6.4375 9.0625 C5.303125 9.041875 4.16875 9.02125 3 9 C3.99 8.67 4.98 8.34 6 8 C5.67 7.01 5.34 6.02 5 5 C2.49552484 3.78130071 2.49552484 3.78130071 0 3 C0 2.01 0 1.02 0 0 Z " fill="#D9D4C9" transform="translate(585,609)"/>
<path d="M0 0 C2.375 1 2.375 1 4 2 C4 2.99 4 3.98 4 5 C3.484375 4.835 2.96875 4.67 2.4375 4.5 C-0.77682668 3.84065094 -3.72846085 3.81824783 -7 4 C-7.66 4.66 -8.32 5.32 -9 6 C-9.66 5.34 -10.32 4.68 -11 4 C-7.2800115 0.49883436 -5.12395216 -0.65412155 0 0 Z " fill="#2A261F" transform="translate(569,602)"/>
<path d="M0 0 C1.98 0.495 1.98 0.495 4 1 C3.94199219 1.73605469 3.88398437 2.47210937 3.82421875 3.23046875 C3.38447014 8.75907941 3.38447014 8.75907941 5.11328125 13.84375 C6.60903828 15.35673892 6.60903828 15.35673892 9 17 C6.02750614 16.68151851 4.96160897 15.96374181 2.75 13.875 C0.60282414 10.3474968 0.6816485 8.0589816 1 4 C0.34 4 -0.32 4 -1 4 C-0.67 2.68 -0.34 1.36 0 0 Z " fill="#E2DDD2" transform="translate(741,604)"/>
<path d="M0 0 C0.66 0.33 1.32 0.66 2 1 C2 7.27 2 13.54 2 20 C1.67 20 1.34 20 1 20 C0.67 16.04 0.34 12.08 0 8 C-0.99 8.495 -0.99 8.495 -2 9 C-2 6.36 -2 3.72 -2 1 C-1.34 0.67 -0.68 0.34 0 0 Z " fill="#F5F1E3" transform="translate(523,600)"/>
<path d="M0 0 C0.66 1.32 1.32 2.64 2 4 C0.26608617 6.16168863 -0.5883871 6.93703947 -3.375 7.36328125 C-4.24125 7.34652344 -5.1075 7.32976563 -6 7.3125 C-6.86625 7.30863281 -7.7325 7.30476562 -8.625 7.30078125 C-11 7 -11 7 -14 5 C-14 4.34 -14 3.68 -14 3 C-13.319375 3.165 -12.63875 3.33 -11.9375 3.5 C-8.5835178 4.07089059 -5.39610195 4.06659023 -2 4 C-1.34 2.68 -0.68 1.36 0 0 Z " fill="#312E25" transform="translate(819,613)"/>
<path d="M0 0 C0.33 0 0.66 0 1 0 C1.33 2.64 1.66 5.28 2 8 C4.97 8.495 4.97 8.495 8 9 C8 9.33 8 9.66 8 10 C6.02 10.66 4.04 11.32 2 12 C1.67 16.29 1.34 20.58 1 25 C0.67 25 0.34 25 0 25 C-0.73598077 16.50791416 -1.29526567 8.46904477 0 0 Z " fill="#5E5B53" transform="translate(883,595)"/>
<path d="M0 0 C0.99 0.66 1.98 1.32 3 2 C3 2.99 3 3.98 3 5 C2.01 4.67 1.02 4.34 0 4 C-4.654797 3.6946182 -4.654797 3.6946182 -9 5 C-9.66 4.34 -10.32 3.68 -11 3 C-7.48991846 -0.36967828 -4.74988885 -0.43180808 0 0 Z " fill="#3E3B33" transform="translate(873,602)"/>
<path d="M0 0 C1.65 0 3.3 0 5 0 C5 1.32 5 2.64 5 4 C5.99 4.33 6.98 4.66 8 5 C7.01 6.98 6.02 8.96 5 11 C2.83125748 10.49396008 1.00032373 10.00016187 -1 9 C-1 8.34 -1 7.68 -1 7 C0.32 7 1.64 7 3 7 C3.25030977 4.58380177 3.25030977 4.58380177 3 2 C2.01 1.34 1.02 0.68 0 0 Z " fill="#DDD7C7" transform="translate(819,600)"/>
<path d="M0 0 C2.31 0 4.62 0 7 0 C7 0.66 7 1.32 7 2 C7.66 2 8.32 2 9 2 C8.67 2.99 8.34 3.98 8 5 C5.36 4.67 2.72 4.34 0 4 C0 2.68 0 1.36 0 0 Z " fill="#EDE8DA" transform="translate(588,605)"/>
<path d="M0 0 C2.47878682 2.1554668 3.57563804 3.71119485 4 7 C3.67 7.66 3.34 8.32 3 9 C1.66666667 9.33333333 0.33333333 9.66666667 -1 10 C-1.33 10.66 -1.66 11.32 -2 12 C-2.66 12 -3.32 12 -4 12 C-2.66666667 8 -1.33333333 4 0 0 Z " fill="#35332C" transform="translate(578,414)"/>
<path d="M0 0 C1.125 1.5625 1.125 1.5625 2 4 C1.125 7.75 1.125 7.75 0 11 C-0.66 10.67 -1.32 10.34 -2 10 C-1.67 9.34 -1.34 8.68 -1 8 C-1.99 8.33 -2.98 8.66 -4 9 C-4.99 8.34 -5.98 7.68 -7 7 C-6.34 7 -5.68 7 -5 7 C-5 6.01 -5 5.02 -5 4 C-3.35 4 -1.7 4 0 4 C0 2.68 0 1.36 0 0 Z " fill="#DDD6C9" transform="translate(760,608)"/>
<path d="M0 0 C0.99 0 1.98 0 3 0 C3.86366822 1.78710586 4.71568594 3.5798465 5.5625 5.375 C6.27599609 6.87160156 6.27599609 6.87160156 7.00390625 8.3984375 C7.33261719 9.25695312 7.66132812 10.11546875 8 11 C7.67 11.66 7.34 12.32 7 13 C6.34 13 5.68 13 5 13 C4.16209211 11.21046815 3.32980604 9.41830305 2.5 7.625 C1.80390625 6.12839844 1.80390625 6.12839844 1.09375 4.6015625 C0 2 0 2 0 0 Z " fill="#36332B" transform="translate(724,602)"/>
<path d="M0 0 C0.99 0.66 1.98 1.32 3 2 C1.35 4.97 -0.3 7.94 -2 11 C-2.99 11 -3.98 11 -5 11 C-5 9.68 -5 8.36 -5 7 C-4.34 7 -3.68 7 -3 7 C-2.690625 6.030625 -2.38125 5.06125 -2.0625 4.0625 C-1 1 -1 1 0 0 Z " fill="#2E2D27" transform="translate(664,264)"/>
<path d="M0 0 C0.99 0.33 1.98 0.66 3 1 C0.59983652 5.94151304 -2.52273027 8.04331244 -7 11 C-6.68232368 5.59950264 -3.80003673 3.47662935 0 0 Z " fill="#E0DACC" transform="translate(807,379)"/>
<path d="M0 0 C0.99 0.33 1.98 0.66 3 1 C1.02 3.31 -0.96 5.62 -3 8 C-4.32 7.34 -5.64 6.68 -7 6 C-5.90716423 4.96704564 -4.80029421 3.94892165 -3.6875 2.9375 C-3.07261719 2.36902344 -2.45773437 1.80054688 -1.82421875 1.21484375 C-0.92123047 0.61349609 -0.92123047 0.61349609 0 0 Z " fill="#30302A" transform="translate(599,194)"/>
<path d="M0 0 C0.33 0 0.66 0 1 0 C1.33 3.96 1.66 7.92 2 12 C3.98 12.66 5.96 13.32 8 14 C8 14.66 8 15.32 8 16 C5.66705225 16.04241723 3.33297433 16.04092937 1 16 C0 15 0 15 -0.09765625 11.62109375 C-0.09098369 10.22652923 -0.07902532 8.83198257 -0.0625 7.4375 C-0.05798828 6.72658203 -0.05347656 6.01566406 -0.04882812 5.28320312 C-0.03700864 3.52209987 -0.01907263 1.76103964 0 0 Z " fill="#1E1C14" transform="translate(828,604)"/>
<path d="M0 0 C0.99 0 1.98 0 3 0 C3.6875 2.8125 3.6875 2.8125 4 6 C2.5625 7.875 2.5625 7.875 1 9 C-1 7 -1 7 -1.1875 3.9375 C-1 1 -1 1 0 0 Z " fill="#211F1B" transform="translate(580,411)"/>
<path d="M0 0 C0.66 0 1.32 0 2 0 C2.33 0.66 2.66 1.32 3 2 C3.99 1.34 4.98 0.68 6 0 C8.6875 -0.125 8.6875 -0.125 11 0 C11.33 0.66 11.66 1.32 12 2 C10.906875 2.28875 9.81375 2.5775 8.6875 2.875 C4.95986155 3.81893204 4.95986155 3.81893204 2 6 C1.34 4.02 0.68 2.04 0 0 Z " fill="#29261E" transform="translate(674,602)"/>
<path d="M0 0 C0.33 0 0.66 0 1 0 C1.6875 2.8125 1.6875 2.8125 2 6 C0.90625 7.71875 0.90625 7.71875 -1 9 C-3.91796875 9.07421875 -3.91796875 9.07421875 -7.1875 8.6875 C-8.81751953 8.50767578 -8.81751953 8.50767578 -10.48046875 8.32421875 C-11.31191406 8.21722656 -12.14335937 8.11023438 -13 8 C-13 7.67 -13 7.34 -13 7 C-11.95199219 6.90912109 -11.95199219 6.90912109 -10.8828125 6.81640625 C-9.97273438 6.73261719 -9.06265625 6.64882813 -8.125 6.5625 C-7.22007812 6.48128906 -6.31515625 6.40007813 -5.3828125 6.31640625 C-2.98889139 6.13010715 -2.98889139 6.13010715 -1 5 C-0.34444881 2.47266765 -0.34444881 2.47266765 0 0 Z " fill="#3A372E" transform="translate(518,603)"/>
<path d="M0 0 C2.31 0 4.62 0 7 0 C5.02 0.99 5.02 0.99 3 2 C3 2.66 3 3.32 3 4 C5.97 4.495 5.97 4.495 9 5 C9 5.33 9 5.66 9 6 C3.52173913 6.36521739 3.52173913 6.36521739 1.125 4.6875 C0 3 0 3 0 0 Z " fill="#DED9CC" transform="translate(540,612)"/>
<path d="M0 0 C0 0.66 0 1.32 0 2 C-1.6396875 2.4021875 -1.6396875 2.4021875 -3.3125 2.8125 C-6.61692663 3.87663739 -7.94960422 4.34654664 -10 7 C-10.33 6.01 -10.66 5.02 -11 4 C-7.65667474 -0.27945633 -5.29105716 -0.4070044 0 0 Z " fill="#2F2D25" transform="translate(623,602)"/>
<path d="M0 0 C1.24047386 3.58359116 0.79708746 6.33339768 0 10 C-0.33 10.66 -0.66 11.32 -1 12 C-1.99 12 -2.98 12 -4 12 C-2.66666667 8 -1.33333333 4 0 0 Z " fill="#34332D" transform="translate(615,322)"/>
<path d="M0 0 C0.66 0.99 1.32 1.98 2 3 C0.8125 4.5 0.8125 4.5 -1 6 C-3.6875 6.1875 -3.6875 6.1875 -6 6 C-6.33 5.01 -6.66 4.02 -7 3 C-5.5459375 2.814375 -5.5459375 2.814375 -4.0625 2.625 C-2.5465625 2.315625 -2.5465625 2.315625 -1 2 C-0.67 1.34 -0.34 0.68 0 0 Z " fill="#35332B" transform="translate(783,621)"/>
<path d="M0 0 C0.99 0.33 1.98 0.66 3 1 C1.1337839 4.54581059 -0.1340672 6.6710856 -4 8 C-4.99 8 -5.98 8 -7 8 C-4.69 5.36 -2.38 2.72 0 0 Z " fill="#E1DDD0" transform="translate(769,305)"/>
<path d="M0 0 C1.4540625 0.0309375 1.4540625 0.0309375 2.9375 0.0625 C2.9375 0.7225 2.9375 1.3825 2.9375 2.0625 C1.9475 2.0625 0.9575 2.0625 -0.0625 2.0625 C-0.0625 2.7225 -0.0625 3.3825 -0.0625 4.0625 C-1.7125 4.3925 -3.3625 4.7225 -5.0625 5.0625 C-3.9375 0.08035714 -3.9375 0.08035714 0 0 Z " fill="#EFEADD" transform="translate(813.0625,598.9375)"/>
<path d="M0 0 C1.36511719 0.43119141 1.36511719 0.43119141 2.7578125 0.87109375 C3.45648437 1.09925781 4.15515625 1.32742187 4.875 1.5625 C4.875 2.2225 4.875 2.8825 4.875 3.5625 C3.4358866 3.27890113 1.99874482 2.98528601 0.5625 2.6875 C-0.23800781 2.52507812 -1.03851562 2.36265625 -1.86328125 2.1953125 C-4.125 1.5625 -4.125 1.5625 -7.125 -0.4375 C-4.30685434 -1.84657283 -2.95222796 -0.94622691 0 0 Z " fill="#34332D" transform="translate(735.125,191.4375)"/>
<path d="M0 0 C1.00289062 0.28746094 2.00578125 0.57492188 3.0390625 0.87109375 C3.80992187 1.09925781 4.58078125 1.32742187 5.375 1.5625 C5.045 2.2225 4.715 2.8825 4.375 3.5625 C2.9358866 3.27890113 1.49874482 2.98528601 0.0625 2.6875 C-0.73800781 2.52507812 -1.53851562 2.36265625 -2.36328125 2.1953125 C-4.625 1.5625 -4.625 1.5625 -7.625 -0.4375 C-4.72405209 -1.88797396 -3.06527404 -0.89106803 0 0 Z " fill="#D4CFC4" transform="translate(742.625,181.4375)"/>
<path d="M0 0 C0.99 0 1.98 0 3 0 C4.06775224 1.96466413 5.06553465 3.96855359 6 6 C5.67 6.66 5.34 7.32 5 8 C4.34 8 3.68 8 3 8 C0 2.25 0 2.25 0 0 Z " fill="#3B372D" transform="translate(776,602)"/>
<path d="M0 0 C0.66 0.33 1.32 0.66 2 1 C2 3.97 2 6.94 2 10 C1.01 10.495 1.01 10.495 0 11 C-0.19406478 9.35492782 -0.38007935 7.70890406 -0.5625 6.0625 C-0.66691406 5.14597656 -0.77132812 4.22945312 -0.87890625 3.28515625 C-0.91886719 2.53105469 -0.95882812 1.77695312 -1 1 C-0.67 0.67 -0.34 0.34 0 0 Z " fill="#F5EFE0" transform="translate(629,604)"/>
<path d="M0 0 C0.66 0.99 1.32 1.98 2 3 C1.01 4.98 0.02 6.96 -1 9 C-2.38111722 6.7252187 -3.05694702 5.49828639 -2.75 2.8125 C-2 1 -2 1 0 0 Z " fill="#31302B" transform="translate(625,336)"/>
<path d="M0 0 C0.99 0 1.98 0 3 0 C2.79375 0.61875 2.5875 1.2375 2.375 1.875 C2.25125 2.57625 2.1275 3.2775 2 4 C2.66 4.66 3.32 5.32 4 6 C2.02 6.33 0.04 6.66 -2 7 C-2 5.68 -2 4.36 -2 3 C-1.34 3 -0.68 3 0 3 C0 2.01 0 1.02 0 0 Z " fill="#F1EBDD" transform="translate(697,324)"/>
<path d="M0 0 C0.66 0 1.32 0 2 0 C2.36923077 5.41538462 2.36923077 5.41538462 0.5 8.375 C0.005 8.91125 -0.49 9.4475 -1 10 C-1.66 9.34 -2.32 8.68 -3 8 C-2.34 7.01 -1.68 6.02 -1 5 C-0.61500109 3.34450469 -0.27206865 1.6777567 0 0 Z " fill="#38362C" transform="translate(627,608)"/>
<path d="M0 0 C4.875 0.875 4.875 0.875 6 2 C6.04080783 3.99958364 6.04254356 6.00045254 6 8 C5.34 8 4.68 8 4 8 C3.67 6.02 3.34 4.04 3 2 C2.01 1.67 1.02 1.34 0 1 C0 0.67 0 0.34 0 0 Z " fill="#1C1B12" transform="translate(816,609)"/>
<path d="M0 0 C0.99 0 1.98 0 3 0 C3 1.32 3 2.64 3 4 C1.33333333 5.66666667 -0.33333333 7.33333333 -2 9 C-2 5.61976483 -1.12544378 3.16531063 0 0 Z " fill="#908B7F" transform="translate(603,595)"/>
<path d="M0 0 C0.99 0.33 1.98 0.66 3 1 C3 1.99 3 2.98 3 4 C0 6.1875 0 6.1875 -3 8 C-3.66 7.67 -4.32 7.34 -5 7 C-4.360625 6.21625 -3.72125 5.4325 -3.0625 4.625 C-1.01857687 2.20460719 -1.01857687 2.20460719 0 0 Z " fill="#E3DDD0" transform="translate(559,547)"/>
<path d="M0 0 C0.33 0.66 0.66 1.32 1 2 C0.22265625 3.7265625 0.22265625 3.7265625 -0.9375 5.625 C-1.618125 6.73875 -2.29875 7.8525 -3 9 C-3.99 8.67 -4.98 8.34 -6 8 C-4.55746343 4.63408134 -2.66735273 2.48952921 0 0 Z " fill="#1D1D19" transform="translate(803,367)"/>
<path d="M0 0 C2 3 2 3 1.5390625 5.48046875 C1.23742187 6.37378906 0.93578125 7.26710938 0.625 8.1875 C0.32851563 9.08855469 0.03203125 9.98960937 -0.2734375 10.91796875 C-0.63308594 11.94857422 -0.63308594 11.94857422 -1 13 C-1.66 12.67 -2.32 12.34 -3 12 C-2.01 8.04 -1.02 4.08 0 0 Z " fill="#31312A" transform="translate(823,326)"/>
<path d="M0 0 C0.33 0 0.66 0 1 0 C0.56179109 4.55737263 0.14958831 7.57653445 -3 11 C-3.75 9.4375 -3.75 9.4375 -4 7 C-2.86915563 4.49713591 -1.47860484 2.32992278 0 0 Z " fill="#312E29" transform="translate(643,303)"/>
<path d="M0 0 C0.99 0.33 1.98 0.66 3 1 C3 1.66 3 2.32 3 3 C2.34 3 1.68 3 1 3 C0.67 4.65 0.34 6.3 0 8 C-0.99 8.33 -1.98 8.66 -3 9 C-2.01 6.03 -1.02 3.06 0 0 Z " fill="#302F2A" transform="translate(629,288)"/>
<path d="M0 0 C-0.66 1.32 -1.32 2.64 -2 4 C-4.64 4 -7.28 4 -10 4 C-7.25346796 1.25346796 -3.91404908 0 0 0 Z " fill="#322E26" transform="translate(759,616)"/>
<path d="M0 0 C0.33 0 0.66 0 1 0 C1.05437607 1.58294782 1.09296271 3.16644256 1.125 4.75 C1.14820313 5.63171875 1.17140625 6.5134375 1.1953125 7.421875 C0.99139502 10.1135858 0.36551721 11.69904974 -1 14 C-2.59789351 9.04653013 -1.28306814 4.86717585 0 0 Z " fill="#DDD8CE" transform="translate(703,346)"/>
<path d="M0 0 C0.33 0.66 0.66 1.32 1 2 C0.0625 4.625 0.0625 4.625 -1 7 C-0.34 7 0.32 7 1 7 C1 7.66 1 8.32 1 9 C-0.65 9 -2.3 9 -4 9 C-2.94124926 5.59687262 -1.99097846 2.98646769 0 0 Z " fill="#2F2D25" transform="translate(694,176)"/>
<path d="M0 0 C0.95465783 2.16967689 1.14401212 3.56328793 0.3984375 5.82421875 C-0.35870385 7.5684743 -1.17609198 9.28627131 -2 11 C-2.66 11 -3.32 11 -4 11 C-2.7874262 7.27566618 -1.49140021 3.62197194 0 0 Z " fill="#DEDACE" transform="translate(739,608)"/>
<path d="M0 0 C2.31 0 4.62 0 7 0 C7 0.99 7 1.98 7 3 C4.69 3 2.38 3 0 3 C0 2.01 0 1.02 0 0 Z " fill="#ECE7DB" transform="translate(748,612)"/>
<path d="M0 0 C0.33 0.99 0.66 1.98 1 3 C3.31 3.33 5.62 3.66 8 4 C5 6 5 6 1.8125 5.625 C0.884375 5.41875 -0.04375 5.2125 -1 5 C-0.67 3.35 -0.34 1.7 0 0 Z " fill="#413F35" transform="translate(587,606)"/>
<path d="M0 0 C0 3.51716303 -0.82445585 4.37121748 -3 7 C-4.32 6.34 -5.64 5.68 -7 5 C-4.69 3.35 -2.38 1.7 0 0 Z " fill="#30302A" transform="translate(700,142)"/>
<path d="M0 0 C-0.33 0.99 -0.66 1.98 -1 3 C-3.31 3.33 -5.62 3.66 -8 4 C-8.33 3.34 -8.66 2.68 -9 2 C-2.25 0 -2.25 0 0 0 Z " fill="#1F1B13" transform="translate(876,616)"/>
<path d="M0 0 C2.375 -0.125 2.375 -0.125 5 0 C5.66 0.66 6.32 1.32 7 2 C6.625 4.625 6.625 4.625 6 7 C5.62875 6.1028125 5.62875 6.1028125 5.25 5.1875 C3.83629988 2.71352479 2.34944617 1.56629745 0 0 Z " fill="#1D1B13" transform="translate(592,611)"/>
<path d="M0 0 C0 0.99 0 1.98 0 3 C-3.28696233 3.79953138 -4.71023192 4.09658936 -8 3 C-6.23110084 -0.53779831 -3.70375662 0 0 0 Z " fill="#49453B" transform="translate(535,602)"/>
<path d="M0 0 C0.33 1.32 0.66 2.64 1 4 C-0.98 4.99 -2.96 5.98 -5 7 C-4.60196439 4.11424181 -4.20990931 3.17810487 -1.9375 1.25 C-1.298125 0.8375 -0.65875 0.425 0 0 Z " fill="#302F29" transform="translate(547,557)"/>
<path d="M0 0 C1.33332095 2.6666419 0.67102033 4.16680303 0 7 C0.66 7.33 1.32 7.66 2 8 C1.01 8 0.02 8 -1 8 C-3 5 -3 5 -2.75 2.875 C-2 1 -2 1 0 0 Z " fill="#E2E0D6" transform="translate(771,536)"/>
<path d="M0 0 C0.66 1.32 1.32 2.64 2 4 C0.1875 5.5625 0.1875 5.5625 -2 7 C-2.99 6.67 -3.98 6.34 -5 6 C-3.35 4.02 -1.7 2.04 0 0 Z " fill="#31312B" transform="translate(835,527)"/>
<path d="M0 0 C0.99 0.33 1.98 0.66 3 1 C1.86695008 4.39914975 0.87481525 5.05254451 -2 7 C-2 3.89448334 -1.4606285 2.64738916 0 0 Z " fill="#2B2B28" transform="translate(789,380)"/>
<path d="M0 0 C0.99 1.485 0.99 1.485 2 3 C4.56282742 3.72965366 4.56282742 3.72965366 7 4 C7 4.66 7 5.32 7 6 C5.00045254 6.04254356 2.99958364 6.04080783 1 6 C0 5 0 5 -0.0625 2.4375 C-0.041875 1.633125 -0.02125 0.82875 0 0 Z " fill="#1A160E" transform="translate(851,614)"/>
<path d="M0 0 C0.99 0 1.98 0 3 0 C2.67 2.64 2.34 5.28 2 8 C1.34 8 0.68 8 0 8 C0 5.36 0 2.72 0 0 Z " fill="#29261F" transform="translate(557,607)"/>
<path d="M0 0 C1.32 0 2.64 0 4 0 C3.34 1.32 2.68 2.64 2 4 C1.01 4 0.02 4 -1 4 C-1 1 -1 1 0 0 Z " fill="#F0ECDF" transform="translate(818,542)"/>
<path d="M0 0 C0.66 0 1.32 0 2 0 C2 1.65 2 3.3 2 5 C0.02 5 -1.96 5 -4 5 C-2.71937515 3.2925002 -1.38232443 1.62626404 0 0 Z " fill="#2E2F2B" transform="translate(865,492)"/>
<path d="M0 0 C0.66 1.32 1.32 2.64 2 4 C0.68 5.32 -0.64 6.64 -2 8 C-1.125 1.125 -1.125 1.125 0 0 Z " fill="#38342C" transform="translate(572,431)"/>
<path d="M0 0 C2.17766075 4.35532149 2.03039555 5.46625958 1 10 C0.34 9.67 -0.32 9.34 -1 9 C-0.67 6.03 -0.34 3.06 0 0 Z " fill="#36352F" transform="translate(639,375)"/>
<path d="M0 0 C2 3 2 3 1.625 5.6875 C1.41875 6.450625 1.2125 7.21375 1 8 C0.01 8 -0.98 8 -2 8 C-1.125 2.25 -1.125 2.25 0 0 Z " fill="#E2DDD0" transform="translate(685,361)"/>
<path d="M0 0 C1.32 0 2.64 0 4 0 C3.34 1.65 2.68 3.3 2 5 C1.01 5 0.02 5 -1 5 C-0.67 3.35 -0.34 1.7 0 0 Z " fill="#302F2A" transform="translate(609,337)"/>
<path d="M0 0 C0.99 0.33 1.98 0.66 3 1 C1.02 2.98 -0.96 4.96 -3 7 C-3.66 6.67 -4.32 6.34 -5 6 C-3.35 4.02 -1.7 2.04 0 0 Z " fill="#DCD8CD" transform="translate(603,205)"/>
<path d="M0 0 C0.94875 0.04125 1.8975 0.0825 2.875 0.125 C-1.875 4 -1.875 4 -4.125 5.125 C-4.455 4.135 -4.785 3.145 -5.125 2.125 C-3.125 0.125 -3.125 0.125 0 0 Z " fill="#ECE7DA" transform="translate(869.125,604.875)"/>
<path d="M0 0 C2.475 0.495 2.475 0.495 5 1 C4.34 2.32 3.68 3.64 3 5 C2.01 4.67 1.02 4.34 0 4 C0 2.68 0 1.36 0 0 Z " fill="#E3DED2" transform="translate(588,605)"/>
<path d="M0 0 C0 0.99 0 1.98 0 3 C-4.455 2.01 -4.455 2.01 -9 1 C-9 0.67 -9 0.34 -9 0 C-5.62182575 -0.84454356 -3.32534757 -1.10844919 0 0 Z " fill="#4A453C" transform="translate(573,604)"/>
<path d="M0 0 C0.99 0.33 1.98 0.66 3 1 C2.01 2.485 2.01 2.485 1 4 C0.34 4 -0.32 4 -1 4 C-1 4.66 -1 5.32 -1 6 C-1.66 6 -2.32 6 -3 6 C-3 5.01 -3 4.02 -3 3 C-2.34 3 -1.68 3 -1 3 C-0.67 2.01 -0.34 1.02 0 0 Z " fill="#26241F" transform="translate(577,423)"/>
<path d="M0 0 C-0.33 2.64 -0.66 5.28 -1 8 C-3.35953094 5.64046906 -3.49141413 4.22104383 -4 1 C-2 0 -2 0 0 0 Z " fill="#C6C4BC" transform="translate(692,345)"/>
<path d="M0 0 C1.32 0.66 2.64 1.32 4 2 C1.61426621 3.89213369 -0.07175348 5.02391783 -3 6 C-1.125 1.125 -1.125 1.125 0 0 Z " fill="#DDD8CC" transform="translate(730,248)"/>
<path d="M0 0 C0.45375 0.66 0.9075 1.32 1.375 2 C1.91125 2.66 2.4475 3.32 3 4 C3.66 4 4.32 4 5 4 C4.67 4.99 4.34 5.98 4 7 C2.68 6.67 1.36 6.34 0 6 C0 4.02 0 2.04 0 0 Z " fill="#F5F2E7" transform="translate(677,204)"/>
<path d="M0 0 C1.32 0.66 2.64 1.32 4 2 C3.236875 2.45375 2.47375 2.9075 1.6875 3.375 C-0.23632814 4.53824492 -2.12941224 5.7529415 -4 7 C-2.92598892 4.08482708 -2.22189824 2.22189824 0 0 Z " fill="#20201C" transform="translate(688,153)"/>
</svg>
